<?xml version="1.0" standalone="no"?>
<!DOCTYPE svg PUBLIC "-//W3C//DTD SVG 20010904//EN"
 "http://www.w3.org/TR/2001/REC-SVG-20010904/DTD/svg10.dtd">
<svg version="1.0" xmlns="http://www.w3.org/2000/svg"
 width="700.000000pt" height="700.000000pt" viewBox="0 0 700.000000 700.000000"
 preserveAspectRatio="xMidYMid meet">
<metadata>
Created by potrace 1.14, written by Peter Selinger 2001-2017
</metadata>
<g transform="translate(0.000000,700.000000) scale(0.100000,-0.100000)"
fill="#000000" stroke="none">
<path d="M3195 6983 c-116 -10 -348 -48 -485 -79 -1162 -267 -2120 -1128
-2513 -2260 -84 -243 -150 -544 -177 -813 -15 -153 -12 -543 5 -701 133 -1199
846 -2223 1922 -2759 390 -194 809 -312 1256 -352 165 -15 591 -6 747 16 401
55 730 156 1085 330 596 292 1077 725 1426 1282 351 560 529 1184 529 1853 0
426 -69 823 -211 1209 -61 166 -224 497 -316 644 -475 757 -1231 1311 -2088
1530 -311 80 -544 107 -890 105 -137 -1 -268 -3 -290 -5z m235 -908 c396 -62
689 -200 904 -426 117 -122 184 -230 264 -421 9 -22 19 -28 59 -33 363 -45
581 -103 799 -213 271 -137 501 -359 632 -611 126 -240 182 -500 182 -836 0
-784 -351 -1442 -1048 -1967 -495 -373 -1174 -666 -1973 -852 -229 -53 -446
-88 -499 -81 -112 16 -222 100 -258 198 -19 49 -20 93 -27 795 -7 677 -9 742
-24 737 -58 -18 -265 -68 -366 -89 -222 -46 -307 -57 -365 -46 -131 25 -230
121 -259 252 -6 26 -10 643 -11 1598 -2 1719 -7 1590 62 1686 62 86 109 107
413 183 301 75 552 115 905 145 108 9 510 -3 610 -19z"/>
<path d="M2875 5453 c-239 -14 -490 -53 -774 -119 l-24 -5 5 -1190 c3 -655 8
-1193 11 -1195 6 -6 148 31 285 73 l82 25 0 829 c0 814 0 829 21 884 24 64 94
141 154 169 78 37 430 127 700 180 152 29 466 76 513 76 17 0 32 4 32 8 0 12
-70 76 -122 111 -175 117 -516 177 -883 154z"/>
<path d="M3865 4544 c-178 -21 -445 -69 -615 -110 l-150 -36 0 -539 0 -540 33
17 c198 103 463 315 596 478 175 214 262 415 306 704 8 50 19 48 -170 26z"/>
<path d="M4680 4508 c0 -139 -69 -424 -147 -609 -104 -244 -238 -436 -457
-654 -232 -231 -461 -391 -795 -558 l-184 -91 7 -626 c4 -343 9 -626 11 -628
8 -8 378 95 566 158 795 266 1370 651 1682 1125 77 118 139 249 187 393 62
190 75 285 75 527 -1 185 -3 221 -24 303 -78 314 -240 495 -546 610 -82 31
-244 72 -337 85 l-38 6 0 -41z"/>
</g>
</svg>
